<svg version="1.1" xmlns="http://www.w3.org/2000/svg" xmlns:xlink="http://www.w3.org/1999/xlink" width="800" height="350" style="width: 800px; height: 350px;"><defs><clipPath id="rfEqeRCpwfFZ"><path fill="none" stroke="none" d=" M 103 42 L 770 42 L 770 297 L 103 297 L 103 42 Z"/></clipPath><clipPath id="TXpaIANLNtaF"><path fill="none" stroke="none" d=" M 103 42 L 770 42 L 770 297 L 103 297 L 103 42 Z"/></clipPath></defs><g><g transform="scale(1,1) translate(0.5,0.5)"><rect fill="#FFFFFF" stroke="none" x="0" y="0" width="800" height="350"/><rect fill="#ffffff" stroke="none" x="0" y="0" width="800" height="350"/><rect fill="#FFFFFF" stroke="none" x="103" y="42" width="667" height="255"/><rect fill="#ffffff" stroke="none" x="103" y="42" width="667" height="255"/><g><rect fill="none" stroke="#e5e5e5" x="103" y="42" width="667" height="255" stroke-linejoin="bevel" stroke-miterlimit="10"/></g><g clip-path="url(#rfEqeRCpwfFZ)"><g><g/><g/><g><path fill="none" stroke="none"/><rect fill="#f1eef6" stroke="none" x="103" y="264.2142857142857" width="166.75" height="29.14285714285711"/><path fill="none" stroke="#f1eef6" paint-order="fill stroke markers" d=" M 103 264.2142857142857 L 269.75 264.2142857142857 L 269.75 293.35714285714283 L 103 293.35714285714283 L 103 264.2142857142857 Z" stroke-linejoin="bevel" stroke-miterlimit="10"/><rect fill="#f1eef6" stroke="none" x="103" y="227.78571428571428" width="166.75" height="29.142857142857167"/><path fill="none" stroke="#f1eef6" paint-order="fill stroke markers" d=" M 103 227.78571428571428 L 269.75 227.78571428571428 L 269.75 256.92857142857144 L 103 256.92857142857144 L 103 227.78571428571428 Z" stroke-linejoin="bevel" stroke-miterlimit="10"/><rect fill="#f1eef6" stroke="none" x="103" y="191.35714285714283" width="166.75" height="29.142857142857167"/><path fill="none" stroke="#f1eef6" paint-order="fill stroke markers" d=" M 103 191.35714285714283 L 269.75 191.35714285714283 L 269.75 220.5 L 103 220.5 L 103 191.35714285714283 Z" stroke-linejoin="bevel" stroke-miterlimit="10"/><rect fill="#f1eef6" stroke="none" x="103" y="154.92857142857144" width="166.75" height="29.14285714285711"/><path fill="none" stroke="#f1eef6" paint-order="fill stroke markers" d=" M 103 154.92857142857144 L 269.75 154.92857142857144 L 269.75 184.07142857142856 L 103 184.07142857142856 L 103 154.92857142857144 Z" stroke-linejoin="bevel" stroke-miterlimit="10"/><rect fill="#f1eef6" stroke="none" x="103" y="118.49999999999997" width="166.75" height="29.142857142857167"/><path fill="none" stroke="#f1eef6" paint-order="fill stroke markers" d=" M 103 118.49999999999997 L 269.75 118.49999999999997 L 269.75 147.64285714285714 L 103 147.64285714285714 L 103 118.49999999999997 Z" stroke-linejoin="bevel" stroke-miterlimit="10"/><rect fill="#f1eef6" stroke="none" x="103" y="82.07142857142856" width="166.75" height="29.142857142857167"/><path fill="none" stroke="#f1eef6" paint-order="fill stroke markers" d=" M 103 82.07142857142856 L 269.75 82.07142857142856 L 269.75 111.21428571428572 L 103 111.21428571428572 L 103 82.07142857142856 Z" stroke-linejoin="bevel" stroke-miterlimit="10"/><rect fill="#f1eef6" stroke="none" x="103" y="45.64285714285711" width="166.75" height="29.142857142857167"/><path fill="none" stroke="#f1eef6" paint-order="fill stroke markers" d=" M 103 45.64285714285711 L 269.75 45.64285714285711 L 269.75 74.78571428571428 L 103 74.78571428571428 L 103 45.64285714285711 Z" stroke-linejoin="bevel" stroke-miterlimit="10"/></g><g><path fill="none" stroke="none"/><rect fill="#bdc9e1" stroke="none" x="269.75" y="264.2142857142857" width="166.75" height="29.14285714285711"/><path fill="none" stroke="#bdc9e1" paint-order="fill stroke markers" d=" M 269.75 264.2142857142857 L 436.5 264.2142857142857 L 436.5 293.35714285714283 L 269.75 293.35714285714283 L 269.75 264.2142857142857 Z" stroke-linejoin="bevel" stroke-miterlimit="10"/><rect fill="#bdc9e1" stroke="none" x="269.75" y="227.78571428571428" width="166.75" height="29.142857142857167"/><path fill="none" stroke="#bdc9e1" paint-order="fill stroke markers" d=" M 269.75 227.78571428571428 L 436.5 227.78571428571428 L 436.5 256.92857142857144 L 269.75 256.92857142857144 L 269.75 227.78571428571428 Z" stroke-linejoin="bevel" stroke-miterlimit="10"/><rect fill="#bdc9e1" stroke="none" x="269.75" y="191.35714285714283" width="166.75" height="29.142857142857167"/><path fill="none" stroke="#bdc9e1" paint-order="fill stroke markers" d=" M 269.75 191.35714285714283 L 436.5 191.35714285714283 L 436.5 220.5 L 269.75 220.5 L 269.75 191.35714285714283 Z" stroke-linejoin="bevel" stroke-miterlimit="10"/><rect fill="#bdc9e1" stroke="none" x="269.75" y="154.92857142857144" width="166.75" height="29.14285714285711"/><path fill="none" stroke="#bdc9e1" paint-order="fill stroke markers" d=" M 269.75 154.92857142857144 L 436.5 154.92857142857144 L 436.5 184.07142857142856 L 269.75 184.07142857142856 L 269.75 154.92857142857144 Z" stroke-linejoin="bevel" stroke-miterlimit="10"/><rect fill="#bdc9e1" stroke="none" x="269.75" y="118.49999999999997" width="166.75" height="29.142857142857167"/><path fill="none" stroke="#bdc9e1" paint-order="fill stroke markers" d=" M 269.75 118.49999999999997 L 436.5 118.49999999999997 L 436.5 147.64285714285714 L 269.75 147.64285714285714 L 269.75 118.49999999999997 Z" stroke-linejoin="bevel" stroke-miterlimit="10"/><rect fill="#bdc9e1" stroke="none" x="269.75" y="82.07142857142856" width="166.75" height="29.142857142857167"/><path fill="none" stroke="#bdc9e1" paint-order="fill stroke markers" d=" M 269.75 82.07142857142856 L 436.5 82.07142857142856 L 436.5 111.21428571428572 L 269.75 111.21428571428572 L 269.75 82.07142857142856 Z" stroke-linejoin="bevel" stroke-miterlimit="10"/><rect fill="#bdc9e1" stroke="none" x="269.75" y="45.64285714285711" width="166.75" height="29.142857142857167"/><path fill="none" stroke="#bdc9e1" paint-order="fill stroke markers" d=" M 269.75 45.64285714285711 L 436.5 45.64285714285711 L 436.5 74.78571428571428 L 269.75 74.78571428571428 L 269.75 45.64285714285711 Z" stroke-linejoin="bevel" stroke-miterlimit="10"/></g><g><path fill="none" stroke="none"/><rect fill="#74a9cf" stroke="none" x="436.5" y="264.2142857142857" width="166.75" height="29.14285714285711"/><path fill="none" stroke="#74a9cf" paint-order="fill stroke markers" d=" M 436.5 264.2142857142857 L 603.25 264.2142857142857 L 603.25 293.35714285714283 L 436.5 293.35714285714283 L 436.5 264.2142857142857 Z" stroke-linejoin="bevel" stroke-miterlimit="10"/><rect fill="#74a9cf" stroke="none" x="436.5" y="227.78571428571428" width="166.75" height="29.142857142857167"/><path fill="none" stroke="#74a9cf" paint-order="fill stroke markers" d=" M 436.5 227.78571428571428 L 603.25 227.78571428571428 L 603.25 256.92857142857144 L 436.5 256.92857142857144 L 436.5 227.78571428571428 Z" stroke-linejoin="bevel" stroke-miterlimit="10"/><rect fill="#74a9cf" stroke="none" x="436.5" y="191.35714285714283" width="166.75" height="29.142857142857167"/><path fill="none" stroke="#74a9cf" paint-order="fill stroke markers" d=" M 436.5 191.35714285714283 L 603.25 191.35714285714283 L 603.25 220.5 L 436.5 220.5 L 436.5 191.35714285714283 Z" stroke-linejoin="bevel" stroke-miterlimit="10"/><rect fill="#74a9cf" stroke="none" x="436.5" y="154.92857142857144" width="166.75" height="29.14285714285711"/><path fill="none" stroke="#74a9cf" paint-order="fill stroke markers" d=" M 436.5 154.92857142857144 L 603.25 154.92857142857144 L 603.25 184.07142857142856 L 436.5 184.07142857142856 L 436.5 154.92857142857144 Z" stroke-linejoin="bevel" stroke-miterlimit="10"/><rect fill="#74a9cf" stroke="none" x="436.5" y="118.49999999999997" width="166.75" height="29.142857142857167"/><path fill="none" stroke="#74a9cf" paint-order="fill stroke markers" d=" M 436.5 118.49999999999997 L 603.25 118.49999999999997 L 603.25 147.64285714285714 L 436.5 147.64285714285714 L 436.5 118.49999999999997 Z" stroke-linejoin="bevel" stroke-miterlimit="10"/><rect fill="#74a9cf" stroke="none" x="436.5" y="82.07142857142856" width="166.75" height="29.142857142857167"/><path fill="none" stroke="#74a9cf" paint-order="fill stroke markers" d=" M 436.5 82.07142857142856 L 603.25 82.07142857142856 L 603.25 111.21428571428572 L 436.5 111.21428571428572 L 436.5 82.07142857142856 Z" stroke-linejoin="bevel" stroke-miterlimit="10"/><rect fill="#74a9cf" stroke="none" x="436.5" y="45.64285714285711" width="166.75" height="29.142857142857167"/><path fill="none" stroke="#74a9cf" paint-order="fill stroke markers" d=" M 436.5 45.64285714285711 L 603.25 45.64285714285711 L 603.25 74.78571428571428 L 436.5 74.78571428571428 L 436.5 45.64285714285711 Z" stroke-linejoin="bevel" stroke-miterlimit="10"/></g><g><path fill="none" stroke="none"/><rect fill="#0570b0" stroke="none" x="603.25" y="264.2142857142857" width="166.75" height="29.14285714285711"/><path fill="none" stroke="#0570b0" paint-order="fill stroke markers" d=" M 603.25 264.2142857142857 L 770 264.2142857142857 L 770 293.35714285714283 L 603.25 293.35714285714283 L 603.25 264.2142857142857 Z" stroke-linejoin="bevel" stroke-miterlimit="10"/><rect fill="#0570b0" stroke="none" x="603.25" y="227.78571428571428" width="166.75" height="29.142857142857167"/><path fill="none" stroke="#0570b0" paint-order="fill stroke markers" d=" M 603.25 227.78571428571428 L 770 227.78571428571428 L 770 256.92857142857144 L 603.25 256.92857142857144 L 603.25 227.78571428571428 Z" stroke-linejoin="bevel" stroke-miterlimit="10"/><rect fill="#0570b0" stroke="none" x="603.25" y="191.35714285714283" width="166.75" height="29.142857142857167"/><path fill="none" stroke="#0570b0" paint-order="fill stroke markers" d=" M 603.25 191.35714285714283 L 770 191.35714285714283 L 770 220.5 L 603.25 220.5 L 603.25 191.35714285714283 Z" stroke-linejoin="bevel" stroke-miterlimit="10"/><rect fill="#0570b0" stroke="none" x="603.25" y="154.92857142857144" width="166.75" height="29.14285714285711"/><path fill="none" stroke="#0570b0" paint-order="fill stroke markers" d=" M 603.25 154.92857142857144 L 770 154.92857142857144 L 770 184.07142857142856 L 603.25 184.07142857142856 L 603.25 154.92857142857144 Z" stroke-linejoin="bevel" stroke-miterlimit="10"/><rect fill="#0570b0" stroke="none" x="603.25" y="118.49999999999997" width="166.75" height="29.142857142857167"/><path fill="none" stroke="#0570b0" paint-order="fill stroke markers" d=" M 603.25 118.49999999999997 L 770 118.49999999999997 L 770 147.64285714285714 L 603.25 147.64285714285714 L 603.25 118.49999999999997 Z" stroke-linejoin="bevel" stroke-miterlimit="10"/><rect fill="#0570b0" stroke="none" x="603.25" y="82.07142857142856" width="166.75" height="29.142857142857167"/><path fill="none" stroke="#0570b0" paint-order="fill stroke markers" d=" M 603.25 82.07142857142856 L 770 82.07142857142856 L 770 111.21428571428572 L 603.25 111.21428571428572 L 603.25 82.07142857142856 Z" stroke-linejoin="bevel" stroke-miterlimit="10"/><rect fill="#0570b0" stroke="none" x="603.25" y="45.64285714285711" width="166.75" height="29.142857142857167"/><path fill="none" stroke="#0570b0" paint-order="fill stroke markers" d=" M 603.25 45.64285714285711 L 770 45.64285714285711 L 770 74.78571428571428 L 603.25 74.78571428571428 L 603.25 45.64285714285711 Z" stroke-linejoin="bevel" stroke-miterlimit="10"/></g><g><path fill="none" stroke="none"/><rect fill="black" stroke="none" x="103" y="273.32142857142856" width="0" height="10.928571428571445"/><path fill="none" stroke="black" paint-order="fill stroke markers" d=" M 103 273.32142857142856 L 103 273.32142857142856 L 103 284.25 L 103 284.25 L 103 273.32142857142856 Z" stroke-linejoin="bevel" stroke-miterlimit="10"/><rect fill="black" stroke="none" x="103" y="236.89285714285717" width="0" height="10.928571428571388"/><path fill="none" stroke="black" paint-order="fill stroke markers" d=" M 103 236.89285714285717 L 103 236.89285714285717 L 103 247.82142857142856 L 103 247.82142857142856 L 103 236.89285714285717 Z" stroke-linejoin="bevel" stroke-miterlimit="10"/><rect fill="black" stroke="none" x="103" y="200.46428571428572" width="153.40999999999997" height="10.928571428571388"/><path fill="none" stroke="black" paint-order="fill stroke markers" d=" M 103 200.46428571428572 L 256.40999999999997 200.46428571428572 L 256.40999999999997 211.3928571428571 L 103 211.3928571428571 L 103 200.46428571428572 Z" stroke-linejoin="bevel" stroke-miterlimit="10"/><rect fill="black" stroke="none" x="103" y="164.03571428571428" width="20.00999999999999" height="10.928571428571445"/><path fill="none" stroke="black" paint-order="fill stroke markers" d=" M 103 164.03571428571428 L 123.00999999999999 164.03571428571428 L 123.00999999999999 174.96428571428572 L 103 174.96428571428572 L 103 164.03571428571428 Z" stroke-linejoin="bevel" stroke-miterlimit="10"/><rect fill="black" stroke="none" x="103" y="127.60714285714283" width="120.06" height="10.928571428571445"/><path fill="none" stroke="black" paint-order="fill stroke markers" d=" M 103 127.60714285714283 L 223.06 127.60714285714283 L 223.06 138.53571428571428 L 103 138.53571428571428 L 103 127.60714285714283 Z" stroke-linejoin="bevel" stroke-miterlimit="10"/><rect fill="black" stroke="none" x="103" y="91.17857142857142" width="66.69999999999999" height="10.928571428571445"/><path fill="none" stroke="black" paint-order="fill stroke markers" d=" M 103 91.17857142857142 L 169.7 91.17857142857142 L 169.7 102.10714285714286 L 103 102.10714285714286 L 103 91.17857142857142 Z" stroke-linejoin="bevel" stroke-miterlimit="10"/><rect fill="black" stroke="none" x="103" y="54.74999999999997" width="100.05000000000001" height="10.928571428571445"/><path fill="none" stroke="black" paint-order="fill stroke markers" d=" M 103 54.74999999999997 L 203.05 54.74999999999997 L 203.05 65.67857142857142 L 103 65.67857142857142 L 103 54.74999999999997 Z" stroke-linejoin="bevel" stroke-miterlimit="10"/></g><g><path fill="none" stroke="none"/><path fill="none" stroke="white" paint-order="fill stroke markers" d=" M 103 297 L 103 260.57142857142856" stroke-linejoin="bevel" stroke-miterlimit="10" stroke-width="2"/><path fill="none" stroke="white" paint-order="fill stroke markers" d=" M 103 260.57142857142856 L 103 224.14285714285714" stroke-linejoin="bevel" stroke-miterlimit="10" stroke-width="2"/><path fill="none" stroke="white" paint-order="fill stroke markers" d=" M 256.40999999999997 224.14285714285714 L 256.40999999999997 187.71428571428572" stroke-linejoin="bevel" stroke-miterlimit="10" stroke-width="2"/><path fill="none" stroke="white" paint-order="fill stroke markers" d=" M 123.00999999999999 187.71428571428572 L 123.00999999999999 151.28571428571428" stroke-linejoin="bevel" stroke-miterlimit="10" stroke-width="2"/><path fill="none" stroke="white" paint-order="fill stroke markers" d=" M 223.06 151.28571428571428 L 223.06 114.85714285714283" stroke-linejoin="bevel" stroke-miterlimit="10" stroke-width="2"/><path fill="none" stroke="white" paint-order="fill stroke markers" d=" M 169.7 114.85714285714283 L 169.7 78.42857142857142" stroke-linejoin="bevel" stroke-miterlimit="10" stroke-width="2"/><path fill="none" stroke="white" paint-order="fill stroke markers" d=" M 203.05 78.42857142857142 L 203.05 42" stroke-linejoin="bevel" stroke-miterlimit="10" stroke-width="2"/></g></g></g><g><g fill="#444444"><path fill="" stroke="none" d=""/><g transform="translate(103,37)"><path fill="none" stroke="none"/><text fill="" stroke="none" font-family="helvetica" font-size="14pt" font-style="normal" font-weight="bold" text-decoration="normal" x="0" y="0" text-anchor="start" dominant-baseline="text-after-edge">ARM platform Rest server</text></g></g></g><g><g fill="#444444"><path fill="none" stroke="black" paint-order="fill stroke markers" d=" M 103 297 L 770 297" stroke-linejoin="bevel" stroke-miterlimit="10"/><path fill="none" stroke="black" paint-order="fill stroke markers" d=" M 103 303 L 103 295" stroke-linejoin="bevel" stroke-miterlimit="10"/><path fill="none" stroke="black" paint-order="fill stroke markers" d=" M 236 303 L 236 295" stroke-linejoin="bevel" stroke-miterlimit="10"/><path fill="none" stroke="black" paint-order="fill stroke markers" d=" M 370 303 L 370 295" stroke-linejoin="bevel" stroke-miterlimit="10"/><path fill="none" stroke="black" paint-order="fill stroke markers" d=" M 503 303 L 503 295" stroke-linejoin="bevel" stroke-miterlimit="10"/><path fill="none" stroke="black" paint-order="fill stroke markers" d=" M 637 303 L 637 295" stroke-linejoin="bevel" stroke-miterlimit="10"/><path fill="" stroke="black" paint-order="fill stroke markers" d=" M 770 303 L 770 295" stroke-linejoin="bevel" stroke-miterlimit="10"/><g transform="translate(103,308) rotate(0,0,0)"><text fill="" stroke="none" font-family="helvetica" font-size="8pt" font-style="normal" font-weight="normal" text-decoration="normal" x="0" y="0" text-anchor="middle" dominant-baseline="hanging">0</text><g transform="rotate(0,0,0) translate(-103,-308) translate(236,308) rotate(0,0,0)"><text fill="" stroke="none" font-family="helvetica" font-size="8pt" font-style="normal" font-weight="normal" text-decoration="normal" x="0" y="0" text-anchor="middle" dominant-baseline="hanging">20</text><g transform="rotate(0,0,0) translate(-236,-308) translate(370,308) rotate(0,0,0)"><text fill="" stroke="none" font-family="helvetica" font-size="8pt" font-style="normal" font-weight="normal" text-decoration="normal" x="0" y="0" text-anchor="middle" dominant-baseline="hanging">40</text><g transform="rotate(0,0,0) translate(-370,-308) translate(503,308) rotate(0,0,0)"><text fill="" stroke="none" font-family="helvetica" font-size="8pt" font-style="normal" font-weight="normal" text-decoration="normal" x="0" y="0" text-anchor="middle" dominant-baseline="hanging">60</text><g transform="rotate(0,0,0) translate(-503,-308) translate(637,308) rotate(0,0,0)"><text fill="" stroke="none" font-family="helvetica" font-size="8pt" font-style="normal" font-weight="normal" text-decoration="normal" x="0" y="0" text-anchor="middle" dominant-baseline="hanging">80</text><g transform="rotate(0,0,0) translate(-637,-308) translate(770,308) rotate(0,0,0)"><text fill="" stroke="none" font-family="helvetica" font-size="8pt" font-style="normal" font-weight="normal" text-decoration="normal" x="0" y="0" text-anchor="middle" dominant-baseline="hanging">100</text><g transform="rotate(0,0,0) translate(-770,-308) translate(437,328) rotate(0,0,0)"><text fill="" stroke="none" font-family="helvetica" font-size="12pt" font-style="italic" font-weight="normal" text-decoration="normal" x="0" y="0" text-anchor="middle" dominant-baseline="hanging">Total run-time perfromance ratio against system calls ratio</text><g transform="rotate(0,0,0) translate(-437,-328)"/></g></g></g></g></g></g></g></g><g fill="#444444"><path fill="none" stroke="black" paint-order="fill stroke markers" d=" M 103 297 L 103 42" stroke-linejoin="bevel" stroke-miterlimit="10"/><path fill="none" stroke="black" paint-order="fill stroke markers" d=" M 97 279 L 105 279" stroke-linejoin="bevel" stroke-miterlimit="10"/><path fill="none" stroke="black" paint-order="fill stroke markers" d=" M 97 242 L 105 242" stroke-linejoin="bevel" stroke-miterlimit="10"/><path fill="none" stroke="black" paint-order="fill stroke markers" d=" M 97 206 L 105 206" stroke-linejoin="bevel" stroke-miterlimit="10"/><path fill="none" stroke="black" paint-order="fill stroke markers" d=" M 97 170 L 105 170" stroke-linejoin="bevel" stroke-miterlimit="10"/><path fill="none" stroke="black" paint-order="fill stroke markers" d=" M 97 133 L 105 133" stroke-linejoin="bevel" stroke-miterlimit="10"/><path fill="none" stroke="black" paint-order="fill stroke markers" d=" M 97 97 L 105 97" stroke-linejoin="bevel" stroke-miterlimit="10"/><path fill="" stroke="black" paint-order="fill stroke markers" d=" M 97 60 L 105 60" stroke-linejoin="bevel" stroke-miterlimit="10"/><g transform="translate(92,279) rotate(0,0,0)"><text fill="" stroke="none" font-family="helvetica" font-size="12pt" font-style="normal" font-weight="normal" text-decoration="normal" x="0" y="0" text-anchor="end" dominant-baseline="central">Ruby</text><g transform="rotate(0,0,0) translate(-92,-279) translate(92,242) rotate(0,0,0)"><text fill="" stroke="none" font-family="helvetica" font-size="12pt" font-style="normal" font-weight="normal" text-decoration="normal" x="0" y="0" text-anchor="end" dominant-baseline="central">Python</text><g transform="rotate(0,0,0) translate(-92,-242) translate(92,206) rotate(0,0,0)"><text fill="" stroke="none" font-family="helvetica" font-size="12pt" font-style="normal" font-weight="normal" text-decoration="normal" x="0" y="0" text-anchor="end" dominant-baseline="central">PHP</text><g transform="rotate(0,0,0) translate(-92,-206) translate(92,170) rotate(0,0,0)"><text fill="" stroke="none" font-family="helvetica" font-size="12pt" font-style="normal" font-weight="normal" text-decoration="normal" x="0" y="0" text-anchor="end" dominant-baseline="central">JavaScript</text><g transform="rotate(0,0,0) translate(-92,-170) translate(92,133) rotate(0,0,0)"><text fill="" stroke="none" font-family="helvetica" font-size="12pt" font-style="normal" font-weight="normal" text-decoration="normal" x="0" y="0" text-anchor="end" dominant-baseline="central">Java</text><g transform="rotate(0,0,0) translate(-92,-133) translate(92,97) rotate(0,0,0)"><text fill="" stroke="none" font-family="helvetica" font-size="12pt" font-style="normal" font-weight="normal" text-decoration="normal" x="0" y="0" text-anchor="end" dominant-baseline="central">Go</text><g transform="rotate(0,0,0) translate(-92,-97) translate(92,60) rotate(0,0,0)"><text fill="" stroke="none" font-family="helvetica" font-size="12pt" font-style="normal" font-weight="normal" text-decoration="normal" x="0" y="0" text-anchor="end" dominant-baseline="central">C#</text><g transform="rotate(0,0,0) translate(-92,-60)"/></g></g></g></g></g></g></g></g><g clip-path="url(#TXpaIANLNtaF)"><g/></g></g></g></g></svg>