<svg version="1.1" xmlns="http://www.w3.org/2000/svg" xmlns:xlink="http://www.w3.org/1999/xlink" width="850" height="350" style="width: 850px; height: 350px;"><defs><clipPath id="ivVfrQAhVsKh"><path fill="none" stroke="none" d=" M 84 48 L 820 48 L 820 280 L 84 280 L 84 48 Z"/></clipPath><clipPath id="ZEmabOxfNRhJ"><path fill="none" stroke="none" d=" M 84 48 L 820 48 L 820 280 L 84 280 L 84 48 Z"/></clipPath></defs><g><g transform="scale(1,1) translate(0.5,0.5)"><rect fill="#FFFFFF" stroke="none" x="0" y="0" width="850" height="350"/><rect fill="#ffffff" stroke="none" x="0" y="0" width="850" height="350"/><rect fill="#FFFFFF" stroke="none" x="84" y="48" width="736" height="232"/><rect fill="#ffffff" stroke="none" x="84" y="48" width="736" height="232"/><g><rect fill="none" stroke="#e5e5e5" x="84" y="48" width="736" height="232" stroke-linejoin="bevel" stroke-miterlimit="10"/></g><g clip-path="url(#ivVfrQAhVsKh)"><g><g/><g/><g><path fill="none" stroke="none"/><rect fill="#f1eef6" stroke="none" x="84" y="250.17142857142858" width="184" height="26.514285714285734"/><path fill="none" stroke="#f1eef6" paint-order="fill stroke markers" d=" M 84 250.17142857142858 L 268 250.17142857142858 L 268 276.6857142857143 L 84 276.6857142857143 L 84 250.17142857142858 Z" stroke-linejoin="bevel" stroke-miterlimit="10"/><rect fill="#f1eef6" stroke="none" x="84" y="217.0285714285714" width="184" height="26.514285714285734"/><path fill="none" stroke="#f1eef6" paint-order="fill stroke markers" d=" M 84 217.0285714285714 L 268 217.0285714285714 L 268 243.54285714285714 L 84 243.54285714285714 L 84 217.0285714285714 Z" stroke-linejoin="bevel" stroke-miterlimit="10"/><rect fill="#f1eef6" stroke="none" x="84" y="183.8857142857143" width="184" height="26.514285714285677"/><path fill="none" stroke="#f1eef6" paint-order="fill stroke markers" d=" M 84 183.8857142857143 L 268 183.8857142857143 L 268 210.39999999999998 L 84 210.39999999999998 L 84 183.8857142857143 Z" stroke-linejoin="bevel" stroke-miterlimit="10"/><rect fill="#f1eef6" stroke="none" x="84" y="150.74285714285713" width="184" height="26.514285714285734"/><path fill="none" stroke="#f1eef6" paint-order="fill stroke markers" d=" M 84 150.74285714285713 L 268 150.74285714285713 L 268 177.25714285714287 L 84 177.25714285714287 L 84 150.74285714285713 Z" stroke-linejoin="bevel" stroke-miterlimit="10"/><rect fill="#f1eef6" stroke="none" x="84" y="117.59999999999997" width="184" height="26.514285714285734"/><path fill="none" stroke="#f1eef6" paint-order="fill stroke markers" d=" M 84 117.59999999999997 L 268 117.59999999999997 L 268 144.1142857142857 L 84 144.1142857142857 L 84 117.59999999999997 Z" stroke-linejoin="bevel" stroke-miterlimit="10"/><rect fill="#f1eef6" stroke="none" x="84" y="84.45714285714283" width="184" height="26.514285714285734"/><path fill="none" stroke="#f1eef6" paint-order="fill stroke markers" d=" M 84 84.45714285714283 L 268 84.45714285714283 L 268 110.97142857142856 L 84 110.97142857142856 L 84 84.45714285714283 Z" stroke-linejoin="bevel" stroke-miterlimit="10"/><rect fill="#f1eef6" stroke="none" x="84" y="51.31428571428569" width="184" height="26.514285714285734"/><path fill="none" stroke="#f1eef6" paint-order="fill stroke markers" d=" M 84 51.31428571428569 L 268 51.31428571428569 L 268 77.82857142857142 L 84 77.82857142857142 L 84 51.31428571428569 Z" stroke-linejoin="bevel" stroke-miterlimit="10"/></g><g><path fill="none" stroke="none"/><rect fill="#bdc9e1" stroke="none" x="268" y="250.17142857142858" width="184" height="26.514285714285734"/><path fill="none" stroke="#bdc9e1" paint-order="fill stroke markers" d=" M 268 250.17142857142858 L 452 250.17142857142858 L 452 276.6857142857143 L 268 276.6857142857143 L 268 250.17142857142858 Z" stroke-linejoin="bevel" stroke-miterlimit="10"/><rect fill="#bdc9e1" stroke="none" x="268" y="217.0285714285714" width="184" height="26.514285714285734"/><path fill="none" stroke="#bdc9e1" paint-order="fill stroke markers" d=" M 268 217.0285714285714 L 452 217.0285714285714 L 452 243.54285714285714 L 268 243.54285714285714 L 268 217.0285714285714 Z" stroke-linejoin="bevel" stroke-miterlimit="10"/><rect fill="#bdc9e1" stroke="none" x="268" y="183.8857142857143" width="184" height="26.514285714285677"/><path fill="none" stroke="#bdc9e1" paint-order="fill stroke markers" d=" M 268 183.8857142857143 L 452 183.8857142857143 L 452 210.39999999999998 L 268 210.39999999999998 L 268 183.8857142857143 Z" stroke-linejoin="bevel" stroke-miterlimit="10"/><rect fill="#bdc9e1" stroke="none" x="268" y="150.74285714285713" width="184" height="26.514285714285734"/><path fill="none" stroke="#bdc9e1" paint-order="fill stroke markers" d=" M 268 150.74285714285713 L 452 150.74285714285713 L 452 177.25714285714287 L 268 177.25714285714287 L 268 150.74285714285713 Z" stroke-linejoin="bevel" stroke-miterlimit="10"/><rect fill="#bdc9e1" stroke="none" x="268" y="117.59999999999997" width="184" height="26.514285714285734"/><path fill="none" stroke="#bdc9e1" paint-order="fill stroke markers" d=" M 268 117.59999999999997 L 452 117.59999999999997 L 452 144.1142857142857 L 268 144.1142857142857 L 268 117.59999999999997 Z" stroke-linejoin="bevel" stroke-miterlimit="10"/><rect fill="#bdc9e1" stroke="none" x="268" y="84.45714285714283" width="184" height="26.514285714285734"/><path fill="none" stroke="#bdc9e1" paint-order="fill stroke markers" d=" M 268 84.45714285714283 L 452 84.45714285714283 L 452 110.97142857142856 L 268 110.97142857142856 L 268 84.45714285714283 Z" stroke-linejoin="bevel" stroke-miterlimit="10"/><rect fill="#bdc9e1" stroke="none" x="268" y="51.31428571428569" width="184" height="26.514285714285734"/><path fill="none" stroke="#bdc9e1" paint-order="fill stroke markers" d=" M 268 51.31428571428569 L 452 51.31428571428569 L 452 77.82857142857142 L 268 77.82857142857142 L 268 51.31428571428569 Z" stroke-linejoin="bevel" stroke-miterlimit="10"/></g><g><path fill="none" stroke="none"/><rect fill="#74a9cf" stroke="none" x="452" y="250.17142857142858" width="184" height="26.514285714285734"/><path fill="none" stroke="#74a9cf" paint-order="fill stroke markers" d=" M 452 250.17142857142858 L 636 250.17142857142858 L 636 276.6857142857143 L 452 276.6857142857143 L 452 250.17142857142858 Z" stroke-linejoin="bevel" stroke-miterlimit="10"/><rect fill="#74a9cf" stroke="none" x="452" y="217.0285714285714" width="184" height="26.514285714285734"/><path fill="none" stroke="#74a9cf" paint-order="fill stroke markers" d=" M 452 217.0285714285714 L 636 217.0285714285714 L 636 243.54285714285714 L 452 243.54285714285714 L 452 217.0285714285714 Z" stroke-linejoin="bevel" stroke-miterlimit="10"/><rect fill="#74a9cf" stroke="none" x="452" y="183.8857142857143" width="184" height="26.514285714285677"/><path fill="none" stroke="#74a9cf" paint-order="fill stroke markers" d=" M 452 183.8857142857143 L 636 183.8857142857143 L 636 210.39999999999998 L 452 210.39999999999998 L 452 183.8857142857143 Z" stroke-linejoin="bevel" stroke-miterlimit="10"/><rect fill="#74a9cf" stroke="none" x="452" y="150.74285714285713" width="184" height="26.514285714285734"/><path fill="none" stroke="#74a9cf" paint-order="fill stroke markers" d=" M 452 150.74285714285713 L 636 150.74285714285713 L 636 177.25714285714287 L 452 177.25714285714287 L 452 150.74285714285713 Z" stroke-linejoin="bevel" stroke-miterlimit="10"/><rect fill="#74a9cf" stroke="none" x="452" y="117.59999999999997" width="184" height="26.514285714285734"/><path fill="none" stroke="#74a9cf" paint-order="fill stroke markers" d=" M 452 117.59999999999997 L 636 117.59999999999997 L 636 144.1142857142857 L 452 144.1142857142857 L 452 117.59999999999997 Z" stroke-linejoin="bevel" stroke-miterlimit="10"/><rect fill="#74a9cf" stroke="none" x="452" y="84.45714285714283" width="184" height="26.514285714285734"/><path fill="none" stroke="#74a9cf" paint-order="fill stroke markers" d=" M 452 84.45714285714283 L 636 84.45714285714283 L 636 110.97142857142856 L 452 110.97142857142856 L 452 84.45714285714283 Z" stroke-linejoin="bevel" stroke-miterlimit="10"/><rect fill="#74a9cf" stroke="none" x="452" y="51.31428571428569" width="184" height="26.514285714285734"/><path fill="none" stroke="#74a9cf" paint-order="fill stroke markers" d=" M 452 51.31428571428569 L 636 51.31428571428569 L 636 77.82857142857142 L 452 77.82857142857142 L 452 51.31428571428569 Z" stroke-linejoin="bevel" stroke-miterlimit="10"/></g><g><path fill="none" stroke="none"/><rect fill="#0570b0" stroke="none" x="636" y="250.17142857142858" width="184" height="26.514285714285734"/><path fill="none" stroke="#0570b0" paint-order="fill stroke markers" d=" M 636 250.17142857142858 L 820 250.17142857142858 L 820 276.6857142857143 L 636 276.6857142857143 L 636 250.17142857142858 Z" stroke-linejoin="bevel" stroke-miterlimit="10"/><rect fill="#0570b0" stroke="none" x="636" y="217.0285714285714" width="184" height="26.514285714285734"/><path fill="none" stroke="#0570b0" paint-order="fill stroke markers" d=" M 636 217.0285714285714 L 820 217.0285714285714 L 820 243.54285714285714 L 636 243.54285714285714 L 636 217.0285714285714 Z" stroke-linejoin="bevel" stroke-miterlimit="10"/><rect fill="#0570b0" stroke="none" x="636" y="183.8857142857143" width="184" height="26.514285714285677"/><path fill="none" stroke="#0570b0" paint-order="fill stroke markers" d=" M 636 183.8857142857143 L 820 183.8857142857143 L 820 210.39999999999998 L 636 210.39999999999998 L 636 183.8857142857143 Z" stroke-linejoin="bevel" stroke-miterlimit="10"/><rect fill="#0570b0" stroke="none" x="636" y="150.74285714285713" width="184" height="26.514285714285734"/><path fill="none" stroke="#0570b0" paint-order="fill stroke markers" d=" M 636 150.74285714285713 L 820 150.74285714285713 L 820 177.25714285714287 L 636 177.25714285714287 L 636 150.74285714285713 Z" stroke-linejoin="bevel" stroke-miterlimit="10"/><rect fill="#0570b0" stroke="none" x="636" y="117.59999999999997" width="184" height="26.514285714285734"/><path fill="none" stroke="#0570b0" paint-order="fill stroke markers" d=" M 636 117.59999999999997 L 820 117.59999999999997 L 820 144.1142857142857 L 636 144.1142857142857 L 636 117.59999999999997 Z" stroke-linejoin="bevel" stroke-miterlimit="10"/><rect fill="#0570b0" stroke="none" x="636" y="84.45714285714283" width="184" height="26.514285714285734"/><path fill="none" stroke="#0570b0" paint-order="fill stroke markers" d=" M 636 84.45714285714283 L 820 84.45714285714283 L 820 110.97142857142856 L 636 110.97142857142856 L 636 84.45714285714283 Z" stroke-linejoin="bevel" stroke-miterlimit="10"/><rect fill="#0570b0" stroke="none" x="636" y="51.31428571428569" width="184" height="26.514285714285734"/><path fill="none" stroke="#0570b0" paint-order="fill stroke markers" d=" M 636 51.31428571428569 L 820 51.31428571428569 L 820 77.82857142857142 L 636 77.82857142857142 L 636 51.31428571428569 Z" stroke-linejoin="bevel" stroke-miterlimit="10"/></g><g><path fill="none" stroke="none"/><rect fill="black" stroke="none" x="84" y="258.4571428571429" width="51.52000000000001" height="9.942857142857065"/><path fill="none" stroke="black" paint-order="fill stroke markers" d=" M 84 258.4571428571429 L 135.52 258.4571428571429 L 135.52 268.4 L 84 268.4 L 84 258.4571428571429 Z" stroke-linejoin="bevel" stroke-miterlimit="10"/><rect fill="black" stroke="none" x="84" y="225.3142857142857" width="29.439999999999998" height="9.942857142857179"/><path fill="none" stroke="black" paint-order="fill stroke markers" d=" M 84 225.3142857142857 L 113.44 225.3142857142857 L 113.44 235.25714285714287 L 84 235.25714285714287 L 84 225.3142857142857 Z" stroke-linejoin="bevel" stroke-miterlimit="10"/><rect fill="black" stroke="none" x="84" y="192.17142857142858" width="184" height="9.942857142857122"/><path fill="none" stroke="black" paint-order="fill stroke markers" d=" M 84 192.17142857142858 L 268 192.17142857142858 L 268 202.1142857142857 L 84 202.1142857142857 L 84 192.17142857142858 Z" stroke-linejoin="bevel" stroke-miterlimit="10"/><rect fill="black" stroke="none" x="84" y="159.0285714285714" width="66.24000000000001" height="9.942857142857179"/><path fill="none" stroke="black" paint-order="fill stroke markers" d=" M 84 159.0285714285714 L 150.24 159.0285714285714 L 150.24 168.9714285714286 L 84 168.9714285714286 L 84 159.0285714285714 Z" stroke-linejoin="bevel" stroke-miterlimit="10"/><rect fill="black" stroke="none" x="84" y="125.88571428571426" width="88.32" height="9.942857142857164"/><path fill="none" stroke="black" paint-order="fill stroke markers" d=" M 84 125.88571428571426 L 172.32 125.88571428571426 L 172.32 135.82857142857142 L 84 135.82857142857142 L 84 125.88571428571426 Z" stroke-linejoin="bevel" stroke-miterlimit="10"/><rect fill="black" stroke="none" x="84" y="92.7428571428571" width="132.48000000000002" height="9.942857142857179"/><path fill="none" stroke="black" paint-order="fill stroke markers" d=" M 84 92.7428571428571 L 216.48000000000002 92.7428571428571 L 216.48000000000002 102.68571428571428 L 84 102.68571428571428 L 84 92.7428571428571 Z" stroke-linejoin="bevel" stroke-miterlimit="10"/><rect fill="black" stroke="none" x="84" y="59.599999999999966" width="80.96000000000001" height="9.942857142857179"/><path fill="none" stroke="black" paint-order="fill stroke markers" d=" M 84 59.599999999999966 L 164.96 59.599999999999966 L 164.96 69.54285714285714 L 84 69.54285714285714 L 84 59.599999999999966 Z" stroke-linejoin="bevel" stroke-miterlimit="10"/></g><g><path fill="none" stroke="none"/><path fill="none" stroke="white" paint-order="fill stroke markers" d=" M 135.52 280 L 135.52 246.85714285714286" stroke-linejoin="bevel" stroke-miterlimit="10" stroke-width="2"/><path fill="none" stroke="white" paint-order="fill stroke markers" d=" M 113.44 246.85714285714286 L 113.44 213.71428571428572" stroke-linejoin="bevel" stroke-miterlimit="10" stroke-width="2"/><path fill="none" stroke="white" paint-order="fill stroke markers" d=" M 268 213.71428571428572 L 268 180.57142857142856" stroke-linejoin="bevel" stroke-miterlimit="10" stroke-width="2"/><path fill="none" stroke="white" paint-order="fill stroke markers" d=" M 150.24 180.57142857142856 L 150.24 147.42857142857142" stroke-linejoin="bevel" stroke-miterlimit="10" stroke-width="2"/><path fill="none" stroke="white" paint-order="fill stroke markers" d=" M 172.32 147.42857142857142 L 172.32 114.28571428571428" stroke-linejoin="bevel" stroke-miterlimit="10" stroke-width="2"/><path fill="none" stroke="white" paint-order="fill stroke markers" d=" M 216.48000000000002 114.28571428571428 L 216.48000000000002 81.14285714285711" stroke-linejoin="bevel" stroke-miterlimit="10" stroke-width="2"/><path fill="none" stroke="white" paint-order="fill stroke markers" d=" M 164.96 81.14285714285711 L 164.96 47.99999999999997" stroke-linejoin="bevel" stroke-miterlimit="10" stroke-width="2"/></g></g></g><g clip-path="url(#ZEmabOxfNRhJ)"><g/></g><g><g fill="#444444"><path fill="none" stroke="black" paint-order="fill stroke markers" d=" M 84 280 L 820 280" stroke-linejoin="bevel" stroke-miterlimit="10"/><path fill="none" stroke="black" paint-order="fill stroke markers" d=" M 84 286 L 84 278" stroke-linejoin="bevel" stroke-miterlimit="10"/><path fill="none" stroke="black" paint-order="fill stroke markers" d=" M 231 286 L 231 278" stroke-linejoin="bevel" stroke-miterlimit="10"/><path fill="none" stroke="black" paint-order="fill stroke markers" d=" M 378 286 L 378 278" stroke-linejoin="bevel" stroke-miterlimit="10"/><path fill="none" stroke="black" paint-order="fill stroke markers" d=" M 526 286 L 526 278" stroke-linejoin="bevel" stroke-miterlimit="10"/><path fill="none" stroke="black" paint-order="fill stroke markers" d=" M 673 286 L 673 278" stroke-linejoin="bevel" stroke-miterlimit="10"/><path fill="" stroke="black" paint-order="fill stroke markers" d=" M 820 286 L 820 278" stroke-linejoin="bevel" stroke-miterlimit="10"/><g transform="translate(84,291) rotate(0,0,0)"><text fill="" stroke="none" font-family="helvetica" font-size="16pt" font-style="normal" font-weight="normal" text-decoration="normal" x="0" y="0" text-anchor="middle" dominant-baseline="hanging">0</text><g transform="rotate(0,0,0) translate(-84,-291) translate(231,291) rotate(0,0,0)"><text fill="" stroke="none" font-family="helvetica" font-size="16pt" font-style="normal" font-weight="normal" text-decoration="normal" x="0" y="0" text-anchor="middle" dominant-baseline="hanging">20</text><g transform="rotate(0,0,0) translate(-231,-291) translate(378,291) rotate(0,0,0)"><text fill="" stroke="none" font-family="helvetica" font-size="16pt" font-style="normal" font-weight="normal" text-decoration="normal" x="0" y="0" text-anchor="middle" dominant-baseline="hanging">40</text><g transform="rotate(0,0,0) translate(-378,-291) translate(526,291) rotate(0,0,0)"><text fill="" stroke="none" font-family="helvetica" font-size="16pt" font-style="normal" font-weight="normal" text-decoration="normal" x="0" y="0" text-anchor="middle" dominant-baseline="hanging">60</text><g transform="rotate(0,0,0) translate(-526,-291) translate(673,291) rotate(0,0,0)"><text fill="" stroke="none" font-family="helvetica" font-size="16pt" font-style="normal" font-weight="normal" text-decoration="normal" x="0" y="0" text-anchor="middle" dominant-baseline="hanging">80</text><g transform="rotate(0,0,0) translate(-673,-291) translate(820,291) rotate(0,0,0)"><text fill="" stroke="none" font-family="helvetica" font-size="16pt" font-style="normal" font-weight="normal" text-decoration="normal" x="0" y="0" text-anchor="middle" dominant-baseline="hanging">100</text><g transform="rotate(0,0,0) translate(-820,-291) translate(452,322) rotate(0,0,0)"><text fill="" stroke="none" font-family="helvetica" font-size="18pt" font-style="italic" font-weight="normal" text-decoration="normal" x="0" y="0" text-anchor="middle" dominant-baseline="hanging">Total run-time perfromance ratio against system calls ratio</text><g transform="rotate(0,0,0) translate(-452,-322)"/></g></g></g></g></g></g></g></g><g fill="#444444"><path fill="none" stroke="black" paint-order="fill stroke markers" d=" M 84 280 L 84 48" stroke-linejoin="bevel" stroke-miterlimit="10"/><path fill="none" stroke="black" paint-order="fill stroke markers" d=" M 78 263 L 86 263" stroke-linejoin="bevel" stroke-miterlimit="10"/><path fill="none" stroke="black" paint-order="fill stroke markers" d=" M 78 230 L 86 230" stroke-linejoin="bevel" stroke-miterlimit="10"/><path fill="none" stroke="black" paint-order="fill stroke markers" d=" M 78 197 L 86 197" stroke-linejoin="bevel" stroke-miterlimit="10"/><path fill="none" stroke="black" paint-order="fill stroke markers" d=" M 78 164 L 86 164" stroke-linejoin="bevel" stroke-miterlimit="10"/><path fill="none" stroke="black" paint-order="fill stroke markers" d=" M 78 131 L 86 131" stroke-linejoin="bevel" stroke-miterlimit="10"/><path fill="none" stroke="black" paint-order="fill stroke markers" d=" M 78 98 L 86 98" stroke-linejoin="bevel" stroke-miterlimit="10"/><path fill="" stroke="black" paint-order="fill stroke markers" d=" M 78 65 L 86 65" stroke-linejoin="bevel" stroke-miterlimit="10"/><g transform="translate(73,263) rotate(0,0,0)"><text fill="" stroke="none" font-family="helvetica" font-size="16pt" font-style="normal" font-weight="normal" text-decoration="normal" x="0" y="0" text-anchor="end" dominant-baseline="central">Ruby</text><g transform="rotate(0,0,0) translate(-73,-263) translate(73,230) rotate(0,0,0)"><text fill="" stroke="none" font-family="helvetica" font-size="16pt" font-style="normal" font-weight="normal" text-decoration="normal" x="0" y="0" text-anchor="end" dominant-baseline="central">Python</text><g transform="rotate(0,0,0) translate(-73,-230) translate(73,197) rotate(0,0,0)"><text fill="" stroke="none" font-family="helvetica" font-size="16pt" font-style="normal" font-weight="normal" text-decoration="normal" x="0" y="0" text-anchor="end" dominant-baseline="central">PHP</text><g transform="rotate(0,0,0) translate(-73,-197) translate(73,164) rotate(0,0,0)"><text fill="" stroke="none" font-family="helvetica" font-size="16pt" font-style="normal" font-weight="normal" text-decoration="normal" x="0" y="0" text-anchor="end" dominant-baseline="central">JS</text><g transform="rotate(0,0,0) translate(-73,-164) translate(73,131) rotate(0,0,0)"><text fill="" stroke="none" font-family="helvetica" font-size="16pt" font-style="normal" font-weight="normal" text-decoration="normal" x="0" y="0" text-anchor="end" dominant-baseline="central">Java</text><g transform="rotate(0,0,0) translate(-73,-131) translate(73,98) rotate(0,0,0)"><text fill="" stroke="none" font-family="helvetica" font-size="16pt" font-style="normal" font-weight="normal" text-decoration="normal" x="0" y="0" text-anchor="end" dominant-baseline="central">Go</text><g transform="rotate(0,0,0) translate(-73,-98) translate(73,65) rotate(0,0,0)"><text fill="" stroke="none" font-family="helvetica" font-size="16pt" font-style="normal" font-weight="normal" text-decoration="normal" x="0" y="0" text-anchor="end" dominant-baseline="central">C#</text><g transform="rotate(0,0,0) translate(-73,-65)"/></g></g></g></g></g></g></g></g><g fill="#444444"><path fill="" stroke="none" d=""/><g transform="translate(84,43)"><path fill="none" stroke="none"/><text fill="" stroke="none" font-family="helvetica" font-size="20pt" font-style="normal" font-weight="bold" text-decoration="normal" x="0" y="0" text-anchor="start" dominant-baseline="text-after-edge">Intel platform gRPC client</text></g></g></g></g></g></svg>